# xmcd
#
# Track frame offsets:
#	183
#	17028
#	32508
#	44720
#	57770
#	67980
#	86283
#	95703
#	110168
#	125570
#	142533
#	155108
#	164985
#	175395
#	185158
#	199043
#	207408
#	217033
#	224808
#	249018
#
# Disc length: 3511 seconds
#
# Revision: 1
# Processed by: cddbd v1.4PL0 Copyright (c) Steve Scherf et al.
# Submitted via: audiograbber 1.80.04
#
DISCID=350db514
DTITLE=Nat King Cole - The Nat King Cole Collection
DYEAR=1987
DGENRE=Blues
TTITLE0=Too Yong
TTITLE1=Mother nature and father time
TTITLE2=This can't be love
TTITLE3=Autumn leaves
TTITLE4=Somebody loves me
TTITLE5=Lush life
TTITLE6=Just in time
TTITLE7=(Get your kicks) on route 66!
TTITLE8=Because you're mine
TTITLE9=Unforgettable
TTITLE10=Mona lisa
TTITLE11=Crazy but I'm in love
TTITLE12=The sand and the sea
TTITLE13=I've grown accustomed to her face
TTITLE14=Tea for two
TTITLE15=It's only a paper moon
TTITLE16=Till the end of the years
TTITLE17=Sweet Sue, just you
TTITLE18=Summertime-Embraceable you
TTITLE19=Sweet Lorraine
EXTD=
EXTT0=
EXTT1=
EXTT2=
EXTT3=
EXTT4=
EXTT5=
EXTT6=
EXTT7=
EXTT8=
EXTT9=
EXTT10=
EXTT11=
EXTT12=
EXTT13=
EXTT14=
EXTT15=
EXTT16=
EXTT17=
EXTT18=
EXTT19=
PLAYORDER=
